<svg width="113" height="42" viewBox="0 0 113 42" fill="none" xmlns="http://www.w3.org/2000/svg">
<g clip-path="url(#clip0_0_316)">
<path d="M113.853 31.5657V30.6003H106.115V31.5657H109.41V41.4203H110.545V31.5657H113.853ZM112.983 23.5811L104.563 9.98672L112.86 0.871685H109.134L98.3923 13.0098V0.866921H95.389V23.5763H98.3923V16.6028L102.525 12.0929L109.475 23.5735L112.983 23.5811ZM84.8374 41.4155H91.532V40.454H85.9705V36.4263H90.4885V35.4523H85.9705V31.5657H91.309V30.6003H84.8374V41.4155ZM90.4124 23.5763L85.3095 14.1773C87.7201 13.4206 89.9109 11.2123 89.9109 7.80611C89.9109 3.45351 86.9378 0.866921 81.9905 0.866921H74.6962V23.5763H77.7016V14.6814H82.3975L87.0623 23.5763H90.4124ZM82.1468 12.1901H77.7006V3.42206H81.8952C85.0263 3.42206 86.9092 5.06227 86.9092 7.80611C86.9092 10.55 85.1247 12.1901 82.1507 12.1901H82.1468ZM75.5485 39.1025C75.0415 37.8407 74.5495 36.759 73.9687 35.3923L71.9404 30.6003H70.7173L75.5333 41.5957H75.5637L80.3948 30.6003H79.1575L77.1293 35.3923C76.5475 36.759 76.0555 37.8407 75.5485 39.1025ZM67.779 23.5763H70.9718L60.578 0.488564H60.5156L50.1219 23.5763H53.3146L55.5065 18.5299H65.5558L67.779 23.5763ZM64.4604 16.0377H56.6019C58.1364 12.5685 59.2943 9.8561 60.5468 6.63958C61.7681 9.8561 62.926 12.5685 64.4604 16.0377ZM51.1217 30.6003H49.9866V41.4155H51.1217V30.6003ZM41.0648 20.8915C41.0648 9.59406 31.9416 0.400879 20.7258 0.400879C9.50997 0.400879 0.386719 9.59214 0.386719 20.8915C0.386719 32.1909 9.50997 41.3822 20.7258 41.3822C31.9416 41.3822 41.0648 32.1909 41.0648 20.8915ZM18.9965 1.64557L3.68354 29.7492C2.27381 27.0128 1.53885 23.9746 1.54084 20.8915C1.54084 10.8216 9.22614 2.53096 18.9965 1.64747V1.64557ZM20.1468 20.5494L5.30593 29.1831L20.1468 1.94959V20.5494ZM20.1468 40.2014C16.977 40.1043 13.8805 39.2171 11.1344 37.6191C8.38832 36.0211 6.0783 33.7621 4.41101 31.0445L20.1468 21.8951V40.2014ZM25.2808 10.8549C25.276 12.5368 24.919 14.1987 24.2332 15.7321C23.5474 17.2654 22.5482 18.6358 21.301 19.7536V1.95436C22.5571 3.0653 23.5623 4.43457 24.2488 5.96991C24.9353 7.50526 25.2872 9.17102 25.2808 10.8549ZM37.0329 10.7281L24.1674 18.2097C25.6362 16.0419 26.4249 13.4796 26.4311 10.8549C26.4375 9.14888 26.109 7.45837 25.4643 5.88077C24.8195 4.30318 23.8715 2.86965 22.6745 1.66273C25.5959 1.96769 28.4089 2.94347 30.8974 4.51504C33.3859 6.08661 35.4836 8.21212 37.0291 10.7281H37.0329ZM37.6129 30.0476L21.8733 20.8915L37.6129 11.7327C39.1192 14.5464 39.9078 17.6932 39.9078 20.8901C39.9078 24.087 39.1192 27.2338 37.6129 30.0476ZM37.032 31.0521C35.3642 33.7677 33.0545 36.0246 30.3094 37.6212C27.5642 39.2178 24.4692 40.1042 21.301 40.2014V21.897L37.032 31.0521ZM57.9983 30.4221H57.9831V41.4155H59.1183V34.2343C59.1183 33.8893 59.1041 33.5729 59.1041 33.2727C59.1931 33.3927 59.3123 33.5281 59.4163 33.6481L66.2607 41.5948H66.2758V30.6003H65.1405V37.7807C65.1405 38.1409 65.1557 38.4411 65.1557 38.7422L64.8426 38.3658L57.9983 30.4221ZM101.254 38.8338C101.254 39.9307 100.179 40.5616 98.7779 40.5616C97.5996 40.5616 96.4967 40.1556 95.7961 39.8106V40.9543C96.7554 41.3765 97.7901 41.596 98.8374 41.5995C100.94 41.5995 102.372 40.5512 102.372 38.7604C102.372 37.183 101.477 36.3119 99.3294 35.5457C97.406 34.8395 96.8847 34.1638 96.8847 33.1879C96.8847 32.1395 97.8837 31.46 99.2556 31.46C100.145 31.4817 101.02 31.697 101.82 32.0909V30.9758C100.996 30.6166 100.109 30.4283 99.2112 30.4221C97.2878 30.4221 95.7667 31.4428 95.7667 33.2307C95.7667 34.7928 96.6459 35.7087 98.7787 36.4711C100.67 37.1478 101.254 37.7339 101.254 38.8299L101.254 38.8338Z" fill="url(#paint0_linear_0_316)"/>
</g>
<defs>
<linearGradient id="paint0_linear_0_316" x1="57.1199" y1="0.400879" x2="57.1199" y2="41.5995" gradientUnits="userSpaceOnUse">
<stop stop-color="#F4E07F"/>
<stop offset="0.247917" stop-color="#E1A93C"/>
<stop offset="0.742708" stop-color="#F4E07F"/>
<stop offset="1" stop-color="#E1A93C"/>
</linearGradient>
<clipPath id="clip0_0_316">
<rect width="113" height="42" fill="white"/>
</clipPath>
</defs>
</svg>
